<?xml version="1.0" encoding="UTF-8" standalone="no"?>
<!DOCTYPE svg PUBLIC "-//W3C//DTD SVG 1.1//EN"
 "http://www.w3.org/Graphics/SVG/1.1/DTD/svg11.dtd">
<!-- Generated by graphviz version 5.0.0 (20220707.1540)
 -->
<!-- Title: dependencies Pages: 1 -->
<svg width="328pt" height="174pt"
 viewBox="0.00 0.00 328.00 173.80" xmlns="http://www.w3.org/2000/svg" xmlns:xlink="http://www.w3.org/1999/xlink">
<g id="graph0" class="graph" transform="scale(1 1) rotate(0) translate(4 169.8)">
<title>dependencies</title>
<polygon fill="white" stroke="transparent" points="-4,4 -4,-169.8 324,-169.8 324,4 -4,4"/>
<text text-anchor="middle" x="160" y="-8.2" font-family="sans-serif" font-size="14.00">dependencies</text>
<g id="clust1" class="cluster">
<title>cluster_CartsModule</title>
<polygon fill="none" stroke="black" stroke-dasharray="1,5" points="8,-32.8 8,-157.8 312,-157.8 312,-32.8 8,-32.8"/>
</g>
<g id="clust6" class="cluster">
<title>cluster_CartsModule_providers</title>
<polygon fill="none" stroke="black" points="16,-40.8 16,-92.8 304,-92.8 304,-40.8 16,-40.8"/>
</g>
<!-- CartsService -->
<g id="node1" class="node">
<title>CartsService</title>
<ellipse fill="#fdb462" stroke="black" cx="236" cy="-66.8" rx="60.26" ry="18"/>
<text text-anchor="middle" x="236" y="-62.6" font-family="Times,serif" font-size="14.00">CartsService</text>
</g>
<!-- CartsModule -->
<g id="node3" class="node">
<title>CartsModule</title>
<polygon fill="#8dd3c7" stroke="black" points="207.6,-149.8 204.6,-153.8 183.6,-153.8 180.6,-149.8 118.4,-149.8 118.4,-113.8 207.6,-113.8 207.6,-149.8"/>
<text text-anchor="middle" x="163" y="-127.6" font-family="Times,serif" font-size="14.00">CartsModule</text>
</g>
<!-- CartsService&#45;&gt;CartsModule -->
<g id="edge1" class="edge">
<title>CartsService&#45;&gt;CartsModule</title>
<path fill="none" stroke="black" d="M191.59,-79.03C191.59,-79.03 191.59,-103.48 191.59,-103.48"/>
<polygon fill="black" stroke="black" points="188.09,-103.48 191.59,-113.48 195.09,-103.48 188.09,-103.48"/>
</g>
<!-- PrismaService -->
<g id="node2" class="node">
<title>PrismaService</title>
<ellipse fill="#fdb462" stroke="black" cx="91" cy="-66.8" rx="66.64" ry="18"/>
<text text-anchor="middle" x="91" y="-62.6" font-family="Times,serif" font-size="14.00">PrismaService</text>
</g>
<!-- PrismaService&#45;&gt;CartsModule -->
<g id="edge2" class="edge">
<title>PrismaService&#45;&gt;CartsModule</title>
<path fill="none" stroke="black" d="M138.13,-79.64C138.13,-79.64 138.13,-103.32 138.13,-103.32"/>
<polygon fill="black" stroke="black" points="134.63,-103.32 138.13,-113.32 141.63,-103.32 134.63,-103.32"/>
</g>
</g>
</svg>
