<?xml version="1.0" encoding="UTF-8" standalone="no"?>
<!DOCTYPE svg PUBLIC "-//W3C//DTD SVG 1.1//EN"
 "http://www.w3.org/Graphics/SVG/1.1/DTD/svg11.dtd">
<!-- Generated by graphviz version 5.0.0 (20220707.1540)
 -->
<!-- Title: dependencies Pages: 1 -->
<svg width="919pt" height="174pt"
 viewBox="0.00 0.00 919.00 173.80" xmlns="http://www.w3.org/2000/svg" xmlns:xlink="http://www.w3.org/1999/xlink">
<g id="graph0" class="graph" transform="scale(1 1) rotate(0) translate(4 169.8)">
<title>dependencies</title>
<polygon fill="white" stroke="transparent" points="-4,4 -4,-169.8 915,-169.8 915,4 -4,4"/>
<text text-anchor="middle" x="455.5" y="-8.2" font-family="sans-serif" font-size="14.00">dependencies</text>
<g id="clust1" class="cluster">
<title>cluster_AppModule</title>
<polygon fill="none" stroke="black" stroke-dasharray="1,5" points="8,-32.8 8,-157.8 903,-157.8 903,-32.8 8,-32.8"/>
</g>
<g id="clust3" class="cluster">
<title>cluster_AppModule_imports</title>
<polygon fill="none" stroke="black" points="305,-40.8 305,-92.8 895,-92.8 895,-40.8 305,-40.8"/>
</g>
<g id="clust6" class="cluster">
<title>cluster_AppModule_providers</title>
<polygon fill="none" stroke="black" points="16,-40.8 16,-92.8 297,-92.8 297,-40.8 16,-40.8"/>
</g>
<!-- CartsModule -->
<g id="node1" class="node">
<title>CartsModule</title>
<polygon fill="#8dd3c7" stroke="black" points="886.6,-84.8 883.6,-88.8 862.6,-88.8 859.6,-84.8 797.4,-84.8 797.4,-48.8 886.6,-48.8 886.6,-84.8"/>
<text text-anchor="middle" x="842" y="-62.6" font-family="Times,serif" font-size="14.00">CartsModule</text>
</g>
<!-- AppModule -->
<g id="node6" class="node">
<title>AppModule</title>
<polygon fill="#8dd3c7" stroke="black" points="518.66,-149.8 515.66,-153.8 494.66,-153.8 491.66,-149.8 435.34,-149.8 435.34,-113.8 518.66,-113.8 518.66,-149.8"/>
<text text-anchor="middle" x="477" y="-127.6" font-family="Times,serif" font-size="14.00">AppModule</text>
</g>
<!-- CartsModule&#45;&gt;AppModule -->
<g id="edge1" class="edge">
<title>CartsModule&#45;&gt;AppModule</title>
<path fill="none" stroke="black" d="M842,-85.09C842,-107.01 842,-140.8 842,-140.8 842,-140.8 528.87,-140.8 528.87,-140.8"/>
<polygon fill="black" stroke="black" points="528.87,-137.3 518.87,-140.8 528.87,-144.3 528.87,-137.3"/>
</g>
<!-- PaymentsModule -->
<g id="node2" class="node">
<title>PaymentsModule</title>
<polygon fill="#8dd3c7" stroke="black" points="778.99,-84.8 775.99,-88.8 754.99,-88.8 751.99,-84.8 665.01,-84.8 665.01,-48.8 778.99,-48.8 778.99,-84.8"/>
<text text-anchor="middle" x="722" y="-62.6" font-family="Times,serif" font-size="14.00">PaymentsModule</text>
</g>
<!-- PaymentsModule&#45;&gt;AppModule -->
<g id="edge2" class="edge">
<title>PaymentsModule&#45;&gt;AppModule</title>
<path fill="none" stroke="black" d="M722,-84.91C722,-104.14 722,-131.8 722,-131.8 722,-131.8 528.84,-131.8 528.84,-131.8"/>
<polygon fill="black" stroke="black" points="528.84,-128.3 518.84,-131.8 528.84,-135.3 528.84,-128.3"/>
</g>
<!-- PrismaModule -->
<g id="node3" class="node">
<title>PrismaModule</title>
<polygon fill="#8dd3c7" stroke="black" points="647.44,-84.8 644.44,-88.8 623.44,-88.8 620.44,-84.8 548.56,-84.8 548.56,-48.8 647.44,-48.8 647.44,-84.8"/>
<text text-anchor="middle" x="598" y="-62.6" font-family="Times,serif" font-size="14.00">PrismaModule</text>
</g>
<!-- PrismaModule&#45;&gt;AppModule -->
<g id="edge3" class="edge">
<title>PrismaModule&#45;&gt;AppModule</title>
<path fill="none" stroke="black" d="M598,-84.83C598,-101.2 598,-122.8 598,-122.8 598,-122.8 528.98,-122.8 528.98,-122.8"/>
<polygon fill="black" stroke="black" points="528.98,-119.3 518.98,-122.8 528.98,-126.3 528.98,-119.3"/>
</g>
<!-- ProductsModule -->
<g id="node4" class="node">
<title>ProductsModule</title>
<polygon fill="#8dd3c7" stroke="black" points="531.05,-84.8 528.05,-88.8 507.05,-88.8 504.05,-84.8 422.95,-84.8 422.95,-48.8 531.05,-48.8 531.05,-84.8"/>
<text text-anchor="middle" x="477" y="-62.6" font-family="Times,serif" font-size="14.00">ProductsModule</text>
</g>
<!-- ProductsModule&#45;&gt;AppModule -->
<g id="edge4" class="edge">
<title>ProductsModule&#45;&gt;AppModule</title>
<path fill="none" stroke="black" d="M477,-84.91C477,-84.91 477,-103.79 477,-103.79"/>
<polygon fill="black" stroke="black" points="473.5,-103.79 477,-113.79 480.5,-103.79 473.5,-103.79"/>
</g>
<!-- UsersModule -->
<g id="node5" class="node">
<title>UsersModule</title>
<polygon fill="#8dd3c7" stroke="black" points="404.94,-84.8 401.94,-88.8 380.94,-88.8 377.94,-84.8 313.06,-84.8 313.06,-48.8 404.94,-48.8 404.94,-84.8"/>
<text text-anchor="middle" x="359" y="-62.6" font-family="Times,serif" font-size="14.00">UsersModule</text>
</g>
<!-- UsersModule&#45;&gt;AppModule -->
<g id="edge5" class="edge">
<title>UsersModule&#45;&gt;AppModule</title>
<path fill="none" stroke="black" d="M359,-84.83C359,-101.2 359,-122.8 359,-122.8 359,-122.8 425.07,-122.8 425.07,-122.8"/>
<polygon fill="black" stroke="black" points="425.07,-126.3 435.07,-122.8 425.07,-119.3 425.07,-126.3"/>
</g>
<!-- AppService -->
<g id="node7" class="node">
<title>AppService</title>
<ellipse fill="#fdb462" stroke="black" cx="232" cy="-66.8" rx="56.75" ry="18"/>
<text text-anchor="middle" x="232" y="-62.6" font-family="Times,serif" font-size="14.00">AppService</text>
</g>
<!-- AppService&#45;&gt;AppModule -->
<g id="edge6" class="edge">
<title>AppService&#45;&gt;AppModule</title>
<path fill="none" stroke="black" d="M232,-84.91C232,-104.14 232,-131.8 232,-131.8 232,-131.8 425.16,-131.8 425.16,-131.8"/>
<polygon fill="black" stroke="black" points="425.16,-135.3 435.16,-131.8 425.16,-128.3 425.16,-135.3"/>
</g>
<!-- PrismaService -->
<g id="node8" class="node">
<title>PrismaService</title>
<ellipse fill="#fdb462" stroke="black" cx="91" cy="-66.8" rx="66.64" ry="18"/>
<text text-anchor="middle" x="91" y="-62.6" font-family="Times,serif" font-size="14.00">PrismaService</text>
</g>
<!-- PrismaService&#45;&gt;AppModule -->
<g id="edge7" class="edge">
<title>PrismaService&#45;&gt;AppModule</title>
<path fill="none" stroke="black" d="M91,-85.09C91,-107.01 91,-140.8 91,-140.8 91,-140.8 425.32,-140.8 425.32,-140.8"/>
<polygon fill="black" stroke="black" points="425.32,-144.3 435.32,-140.8 425.32,-137.3 425.32,-144.3"/>
</g>
</g>
</svg>
