<?xml version="1.0" encoding="UTF-8" standalone="no"?>
<!DOCTYPE svg PUBLIC "-//W3C//DTD SVG 1.1//EN"
 "http://www.w3.org/Graphics/SVG/1.1/DTD/svg11.dtd">
<!-- Generated by graphviz version 5.0.0 (20220707.1540)
 -->
<!-- Title: dependencies Pages: 1 -->
<svg width="1370pt" height="242pt"
 viewBox="0.00 0.00 1370.00 241.80" xmlns="http://www.w3.org/2000/svg" xmlns:xlink="http://www.w3.org/1999/xlink">
<g id="graph0" class="graph" transform="scale(1 1) rotate(0) translate(4 237.8)">
<title>dependencies</title>
<polygon fill="white" stroke="transparent" points="-4,4 -4,-237.8 1366,-237.8 1366,4 -4,4"/>
<text text-anchor="middle" x="681" y="-8.2" font-family="sans-serif" font-size="14.00">dependencies</text>
<g id="clust1" class="cluster">
<title>cluster_AppModule</title>
<polygon fill="none" stroke="black" stroke-dasharray="1,5" points="8,-32.8 8,-225.8 646,-225.8 646,-32.8 8,-32.8"/>
</g>
<g id="clust3" class="cluster">
<title>cluster_AppModule_imports</title>
<polygon fill="none" stroke="black" points="48,-108.8 48,-160.8 638,-160.8 638,-108.8 48,-108.8"/>
</g>
<g id="clust6" class="cluster">
<title>cluster_AppModule_providers</title>
<polygon fill="none" stroke="black" points="16,-40.8 16,-92.8 297,-92.8 297,-40.8 16,-40.8"/>
</g>
<g id="clust7" class="cluster">
<title>cluster_CartsModule</title>
<polygon fill="none" stroke="black" stroke-dasharray="1,5" points="654,-32.8 654,-100.8 806,-100.8 806,-32.8 654,-32.8"/>
</g>
<g id="clust12" class="cluster">
<title>cluster_CartsModule_providers</title>
<polygon fill="none" stroke="black" points="662,-40.8 662,-92.8 798,-92.8 798,-40.8 662,-40.8"/>
</g>
<g id="clust13" class="cluster">
<title>cluster_PaymentsModule</title>
<polygon fill="none" stroke="black" stroke-dasharray="1,5" points="814,-32.8 814,-100.8 1002,-100.8 1002,-32.8 814,-32.8"/>
</g>
<g id="clust18" class="cluster">
<title>cluster_PaymentsModule_providers</title>
<polygon fill="none" stroke="black" points="822,-40.8 822,-92.8 994,-92.8 994,-40.8 822,-40.8"/>
</g>
<g id="clust25" class="cluster">
<title>cluster_ProductsModule</title>
<polygon fill="none" stroke="black" stroke-dasharray="1,5" points="1010,-32.8 1010,-100.8 1190,-100.8 1190,-32.8 1010,-32.8"/>
</g>
<g id="clust30" class="cluster">
<title>cluster_ProductsModule_providers</title>
<polygon fill="none" stroke="black" points="1018,-40.8 1018,-92.8 1182,-92.8 1182,-40.8 1018,-40.8"/>
</g>
<g id="clust31" class="cluster">
<title>cluster_UsersModule</title>
<polygon fill="none" stroke="black" stroke-dasharray="1,5" points="1198,-32.8 1198,-100.8 1354,-100.8 1354,-32.8 1198,-32.8"/>
</g>
<g id="clust36" class="cluster">
<title>cluster_UsersModule_providers</title>
<polygon fill="none" stroke="black" points="1206,-40.8 1206,-92.8 1346,-92.8 1346,-40.8 1206,-40.8"/>
</g>
<!-- CartsModule -->
<g id="node1" class="node">
<title>CartsModule</title>
<polygon fill="#8dd3c7" stroke="black" points="261.6,-152.8 258.6,-156.8 237.6,-156.8 234.6,-152.8 172.4,-152.8 172.4,-116.8 261.6,-116.8 261.6,-152.8"/>
<text text-anchor="middle" x="217" y="-130.6" font-family="Times,serif" font-size="14.00">CartsModule</text>
</g>
<!-- AppModule -->
<g id="node6" class="node">
<title>AppModule</title>
<polygon fill="#8dd3c7" stroke="black" points="258.66,-217.8 255.66,-221.8 234.66,-221.8 231.66,-217.8 175.34,-217.8 175.34,-181.8 258.66,-181.8 258.66,-217.8"/>
<text text-anchor="middle" x="217" y="-195.6" font-family="Times,serif" font-size="14.00">AppModule</text>
</g>
<!-- CartsModule&#45;&gt;AppModule -->
<g id="edge1" class="edge">
<title>CartsModule&#45;&gt;AppModule</title>
<path fill="none" stroke="black" d="M217,-152.91C217,-152.91 217,-171.79 217,-171.79"/>
<polygon fill="black" stroke="black" points="213.5,-171.79 217,-181.79 220.5,-171.79 213.5,-171.79"/>
</g>
<!-- PaymentsModule -->
<g id="node2" class="node">
<title>PaymentsModule</title>
<polygon fill="#8dd3c7" stroke="black" points="519.99,-152.8 516.99,-156.8 495.99,-156.8 492.99,-152.8 406.01,-152.8 406.01,-116.8 519.99,-116.8 519.99,-152.8"/>
<text text-anchor="middle" x="463" y="-130.6" font-family="Times,serif" font-size="14.00">PaymentsModule</text>
</g>
<!-- PaymentsModule&#45;&gt;AppModule -->
<g id="edge2" class="edge">
<title>PaymentsModule&#45;&gt;AppModule</title>
<path fill="none" stroke="black" d="M463,-152.91C463,-172.14 463,-199.8 463,-199.8 463,-199.8 268.73,-199.8 268.73,-199.8"/>
<polygon fill="black" stroke="black" points="268.73,-196.3 258.73,-199.8 268.73,-203.3 268.73,-196.3"/>
</g>
<!-- PrismaModule -->
<g id="node3" class="node">
<title>PrismaModule</title>
<polygon fill="#8dd3c7" stroke="black" points="154.44,-152.8 151.44,-156.8 130.44,-156.8 127.44,-152.8 55.56,-152.8 55.56,-116.8 154.44,-116.8 154.44,-152.8"/>
<text text-anchor="middle" x="105" y="-130.6" font-family="Times,serif" font-size="14.00">PrismaModule</text>
</g>
<!-- PrismaModule&#45;&gt;AppModule -->
<g id="edge3" class="edge">
<title>PrismaModule&#45;&gt;AppModule</title>
<path fill="none" stroke="black" d="M105,-152.91C105,-172.14 105,-199.8 105,-199.8 105,-199.8 165.3,-199.8 165.3,-199.8"/>
<polygon fill="black" stroke="black" points="165.3,-203.3 175.3,-199.8 165.3,-196.3 165.3,-203.3"/>
</g>
<!-- ProductsModule -->
<g id="node4" class="node">
<title>ProductsModule</title>
<polygon fill="#8dd3c7" stroke="black" points="388.05,-152.8 385.05,-156.8 364.05,-156.8 361.05,-152.8 279.95,-152.8 279.95,-116.8 388.05,-116.8 388.05,-152.8"/>
<text text-anchor="middle" x="334" y="-130.6" font-family="Times,serif" font-size="14.00">ProductsModule</text>
</g>
<!-- ProductsModule&#45;&gt;AppModule -->
<g id="edge4" class="edge">
<title>ProductsModule&#45;&gt;AppModule</title>
<path fill="none" stroke="black" d="M334,-152.83C334,-169.2 334,-190.8 334,-190.8 334,-190.8 268.91,-190.8 268.91,-190.8"/>
<polygon fill="black" stroke="black" points="268.91,-187.3 258.91,-190.8 268.91,-194.3 268.91,-187.3"/>
</g>
<!-- UsersModule -->
<g id="node5" class="node">
<title>UsersModule</title>
<polygon fill="#8dd3c7" stroke="black" points="629.94,-152.8 626.94,-156.8 605.94,-156.8 602.94,-152.8 538.06,-152.8 538.06,-116.8 629.94,-116.8 629.94,-152.8"/>
<text text-anchor="middle" x="584" y="-130.6" font-family="Times,serif" font-size="14.00">UsersModule</text>
</g>
<!-- UsersModule&#45;&gt;AppModule -->
<g id="edge5" class="edge">
<title>UsersModule&#45;&gt;AppModule</title>
<path fill="none" stroke="black" d="M584,-153.09C584,-175.01 584,-208.8 584,-208.8 584,-208.8 268.74,-208.8 268.74,-208.8"/>
<polygon fill="black" stroke="black" points="268.74,-205.3 258.74,-208.8 268.74,-212.3 268.74,-205.3"/>
</g>
<!-- AppService -->
<g id="node7" class="node">
<title>AppService</title>
<ellipse fill="#fdb462" stroke="black" cx="81" cy="-66.8" rx="56.75" ry="18"/>
<text text-anchor="middle" x="81" y="-62.6" font-family="Times,serif" font-size="14.00">AppService</text>
</g>
<!-- AppService&#45;&gt;AppModule -->
<g id="edge6" class="edge">
<title>AppService&#45;&gt;AppModule</title>
<path fill="none" stroke="black" d="M40.08,-79.4C40.08,-114.15 40.08,-208.8 40.08,-208.8 40.08,-208.8 165.07,-208.8 165.07,-208.8"/>
<polygon fill="black" stroke="black" points="165.07,-212.3 175.07,-208.8 165.07,-205.3 165.07,-212.3"/>
</g>
<!-- PrismaService -->
<g id="node8" class="node">
<title>PrismaService</title>
<ellipse fill="#fdb462" stroke="black" cx="222" cy="-66.8" rx="66.64" ry="18"/>
<text text-anchor="middle" x="222" y="-62.6" font-family="Times,serif" font-size="14.00">PrismaService</text>
</g>
<!-- PrismaService&#45;&gt;CartsModule -->
<g id="edge9" class="edge">
<title>PrismaService&#45;&gt;CartsModule</title>
<path fill="none" stroke="black" d="M202.15,-84.31C202.15,-84.31 202.15,-106.64 202.15,-106.64"/>
<polygon fill="black" stroke="black" points="198.65,-106.64 202.15,-116.64 205.65,-106.64 198.65,-106.64"/>
</g>
<!-- PrismaService&#45;&gt;PrismaModule -->
<g id="edge11" class="edge">
<title>PrismaService&#45;&gt;PrismaModule</title>
<path fill="none" stroke="black" d="M160.94,-74.34C160.94,-92.04 160.94,-134.8 160.94,-134.8 160.94,-134.8 160.3,-134.8 160.3,-134.8"/>
<polygon fill="black" stroke="black" points="164.52,-131.3 154.52,-134.8 164.52,-138.3 164.52,-131.3"/>
</g>
<!-- PrismaService&#45;&gt;ProductsModule -->
<g id="edge13" class="edge">
<title>PrismaService&#45;&gt;ProductsModule</title>
<path fill="none" stroke="black" d="M284.27,-73.57C284.27,-73.57 284.27,-106.61 284.27,-106.61"/>
<polygon fill="black" stroke="black" points="280.77,-106.61 284.27,-116.61 287.77,-106.61 280.77,-106.61"/>
</g>
<!-- PrismaService&#45;&gt;UsersModule -->
<g id="edge15" class="edge">
<title>PrismaService&#45;&gt;UsersModule</title>
<path fill="none" stroke="black" d="M285.06,-72.8C388.77,-72.8 584,-72.8 584,-72.8 584,-72.8 584,-106.53 584,-106.53"/>
<polygon fill="black" stroke="black" points="580.5,-106.53 584,-116.53 587.5,-106.53 580.5,-106.53"/>
</g>
<!-- PrismaService&#45;&gt;AppModule -->
<g id="edge7" class="edge">
<title>PrismaService&#45;&gt;AppModule</title>
<path fill="none" stroke="black" d="M166.69,-76.95C166.69,-106.56 166.69,-190.8 166.69,-190.8 166.69,-190.8 167.52,-190.8 167.52,-190.8"/>
<polygon fill="black" stroke="black" points="165,-194.3 175,-190.8 165,-187.3 165,-194.3"/>
</g>
<!-- CartsService -->
<g id="node9" class="node">
<title>CartsService</title>
<ellipse fill="#fdb462" stroke="black" cx="730" cy="-66.8" rx="60.26" ry="18"/>
<text text-anchor="middle" x="730" y="-62.6" font-family="Times,serif" font-size="14.00">CartsService</text>
</g>
<!-- CartsService&#45;&gt;CartsModule -->
<g id="edge8" class="edge">
<title>CartsService&#45;&gt;CartsModule</title>
<path fill="none" stroke="black" d="M730,-84.86C730,-89.29 730,-92.8 730,-92.8 730,-92.8 231.85,-92.8 231.85,-92.8 231.85,-92.8 231.85,-106.74 231.85,-106.74"/>
<polygon fill="black" stroke="black" points="228.35,-106.74 231.85,-116.74 235.35,-106.74 228.35,-106.74"/>
</g>
<!-- CartsService&#45;&gt;ProductsModule -->
<g id="edge12" class="edge">
<title>CartsService&#45;&gt;ProductsModule</title>
<path fill="none" stroke="black" d="M672.84,-60.8C560.54,-60.8 321.97,-60.8 321.97,-60.8 321.97,-60.8 321.97,-106.51 321.97,-106.51"/>
<polygon fill="black" stroke="black" points="318.47,-106.51 321.97,-116.51 325.47,-106.51 318.47,-106.51"/>
</g>
<!-- PaymentsService -->
<g id="node10" class="node">
<title>PaymentsService</title>
<ellipse fill="#fdb462" stroke="black" cx="908" cy="-66.8" rx="77.59" ry="18"/>
<text text-anchor="middle" x="908" y="-62.6" font-family="Times,serif" font-size="14.00">PaymentsService</text>
</g>
<!-- PaymentsService&#45;&gt;PaymentsModule -->
<g id="edge10" class="edge">
<title>PaymentsService&#45;&gt;PaymentsModule</title>
<path fill="none" stroke="black" d="M908,-84.86C908,-96.24 908,-108.8 908,-108.8 908,-108.8 463,-108.8 463,-108.8 463,-108.8 463,-109.59 463,-109.59"/>
<polygon fill="black" stroke="black" points="459.5,-106.74 463,-116.74 466.5,-106.74 459.5,-106.74"/>
</g>
<!-- ProductsService -->
<g id="node11" class="node">
<title>ProductsService</title>
<ellipse fill="#fdb462" stroke="black" cx="1100" cy="-66.8" rx="73.59" ry="18"/>
<text text-anchor="middle" x="1100" y="-62.6" font-family="Times,serif" font-size="14.00">ProductsService</text>
</g>
<!-- ProductsService&#45;&gt;ProductsModule -->
<g id="edge14" class="edge">
<title>ProductsService&#45;&gt;ProductsModule</title>
<path fill="none" stroke="black" d="M1100,-84.99C1100,-93.08 1100,-100.8 1100,-100.8 1100,-100.8 355.12,-100.8 355.12,-100.8 355.12,-100.8 355.12,-106.61 355.12,-106.61"/>
<polygon fill="black" stroke="black" points="351.62,-106.61 355.12,-116.61 358.62,-106.61 351.62,-106.61"/>
</g>
<!-- UsersService -->
<g id="node12" class="node">
<title>UsersService</title>
<ellipse fill="#fdb462" stroke="black" cx="1276" cy="-66.8" rx="61.97" ry="18"/>
<text text-anchor="middle" x="1276" y="-62.6" font-family="Times,serif" font-size="14.00">UsersService</text>
</g>
<!-- UsersService&#45;&gt;UsersModule -->
<g id="edge16" class="edge">
<title>UsersService&#45;&gt;UsersModule</title>
<path fill="none" stroke="black" d="M1276,-85.02C1276,-105.17 1276,-134.8 1276,-134.8 1276,-134.8 639.94,-134.8 639.94,-134.8"/>
<polygon fill="black" stroke="black" points="639.94,-131.3 629.94,-134.8 639.94,-138.3 639.94,-131.3"/>
</g>
</g>
</svg>
